<?xml version="1.0" encoding="utf-8"?>
<!-- Generator: Adobe Illustrator 21.0.0, SVG Export Plug-In . SVG Version: 6.00 Build 0)  -->
<svg version="1.1" id="Layer_1" xmlns="http://www.w3.org/2000/svg" xmlns:xlink="http://www.w3.org/1999/xlink" x="0px" y="0px"
	 viewBox="0 0 209 70" style="enable-background:new 0 0 209 70;" xml:space="preserve">
<style type="text/css">
	.st0{fill:#222222;}
	.st1{fill:#3A3A3A;}
	.st2{fill:#FEDA2C;}
	.st3{fill:#40403F;}
	.st4{fill:none;stroke:#40403F;stroke-width:2.5;stroke-miterlimit:10;}
	.st5{fill:#E45627;}
</style>
<g>
	<path class="st0" d="M116.8,26.6h-5.2v0.9c0,1.7,0.6,3.2,1.8,4.4c1.2,1.2,2.7,2,4.6,2.6l-2,2.6c-1.3-0.6-2.5-1.2-3.6-2
		c-1.1-0.8-1.9-1.6-2.5-2.6c-0.5,1-1.3,2-2.5,2.9c-1.2,0.9-2.5,1.7-4,2.4l-2.3-2.5c2.2-0.8,3.9-1.8,5.1-3c1.2-1.2,1.8-2.9,1.8-4.9
		v-0.7h-5.2v-3h14.1V26.6z M105.9,50.3V38.9h3.4V42h11.6v-3.1h3.4v11.4c0,0.3-0.1,0.6-0.2,0.7c-0.1,0.1-0.4,0.2-0.7,0.2h-16.7
		c-0.3,0-0.6-0.1-0.7-0.2C105.9,50.9,105.9,50.6,105.9,50.3z M120.9,48.2V45h-11.6v3.3H120.9z M124.3,22.2v15.5h-3.5V22.2H124.3z"/>
	<path class="st0" d="M138.5,23.2c0.3,0,0.5,0.1,0.7,0.2c0.1,0.1,0.2,0.4,0.2,0.7c-0.1,0.8-0.2,1.7-0.3,2.8c-0.1,1-0.3,2.1-0.4,3.2
		c-0.2,1.1-0.4,2.1-0.6,3.2c-0.2,1-0.4,1.9-0.5,2.6h7.4c0.1-0.7,0.3-1.4,0.5-2.2c0.2-0.8,0.3-1.7,0.4-2.6c0.1-0.9,0.3-1.7,0.3-2.5
		c0.1-0.8,0.1-1.6,0.1-2.2h-6.2v-3.1h8.9c0.3,0,0.5,0.1,0.7,0.2c0.1,0.1,0.2,0.4,0.2,0.7c0,0.8-0.1,1.6-0.2,2.6
		c-0.1,1-0.2,2-0.4,3.1c-0.1,1.1-0.3,2.1-0.4,3.2c-0.2,1.1-0.3,2-0.5,2.8h4.1v3.1h-10.9v12.6h-3.5V38.9h-10.9v-3.1h6.7
		c0.2-0.7,0.3-1.4,0.5-2.2c0.2-0.8,0.4-1.7,0.5-2.6c0.1-0.9,0.3-1.7,0.4-2.5c0.1-0.8,0.2-1.6,0.2-2.3h-6v-3.1H138.5z"/>
	<path class="st0" d="M157.1,24h11.2c0.3,0,0.5,0.1,0.7,0.2c0.1,0.1,0.2,0.4,0.2,0.7v18.5c0,0.3-0.1,0.6-0.2,0.7
		c-0.1,0.1-0.4,0.2-0.7,0.2h-11.3c-0.3,0-0.5-0.1-0.7-0.2c-0.1-0.1-0.2-0.4-0.2-0.7V24.9c0-0.3,0.1-0.6,0.2-0.7
		C156.6,24,156.8,24,157.1,24z M165.8,41.2V27.1h-6.1v14.1H165.8z M173.7,51.5V22.2h3.5v29.3H173.7z"/>
	<path class="st0" d="M195.1,23.9c0.3,0,0.5,0.1,0.7,0.2c0.1,0.1,0.2,0.4,0.2,0.7c-0.2,4.5-1.3,8.6-3.2,12.1
		c-1.9,3.6-4.7,6.6-8.4,9.1l-2.9-2.5c3.3-1.9,5.8-4.2,7.6-7c1.8-2.8,2.8-6,3-9.6H183v-3.1H195.1z M204.1,22.2v29.3h-3.5V22.2H204.1z
		"/>
</g>
<g>
	<path class="st1" d="M76.3,45.3c-0.3,0-0.4,0-0.5-0.1c-0.1-0.1-0.1-0.3-0.1-0.5v-15h2.7v13.2l1.8,0c0.2,0,0.5,0,0.9,0
		c0.4,0,0.7-0.1,1.1-0.1c0.4,0,0.8-0.1,1.1-0.2c0.4-0.1,0.7-0.1,0.9-0.2v2.4c-0.2,0-0.5,0.1-0.9,0.2C82.9,44.9,82.5,45,82,45
		c-0.5,0-0.9,0.1-1.4,0.1c-0.5,0-0.9,0.1-1.4,0.1c-0.1,0-0.4,0-0.7,0c-0.3,0-0.6,0-1,0c-0.3,0-0.6,0-0.9,0
		C76.4,45.3,76.3,45.3,76.3,45.3z M85,49.6V29h2.6v7h2.1v-7.4h2.6v22.1h-2.6v-12h-2.1v10.9H85z"/>
</g>
<g>
	<path class="st2" d="M60.8,62.5H9.7c-2.1,0-3.8-1.7-3.8-3.8V11.1c0-2.1,1.7-3.8,3.8-3.8h51.1c2.1,0,3.8,1.7,3.8,3.8v47.6
		C64.6,60.8,62.9,62.5,60.8,62.5z"/>
	<polygon class="st3" points="32.1,41.5 32.1,41.5 32.4,40.6 32.5,40.6 	"/>
	<path class="st4" d="M30.7,31.4"/>
	<path class="st4" d="M32.3,41"/>
	<path class="st4" d="M33.3,41.2"/>
	<polygon class="st3" points="31.8,45.5 31.8,45.5 32.8,45.5 	"/>
	<rect x="31.6" y="45" class="st3" width="0.6" height="1"/>
	<rect x="31.8" y="41" class="st3" width="1" height="0.2"/>
	<rect x="45.9" y="45" class="st3" width="3.5" height="1"/>
	<rect x="32.3" y="45" class="st3" width="3.5" height="1"/>
	<polygon class="st3" points="31.7,45.5 31.7,45.5 32.7,45.5 	"/>
	<rect x="32.2" y="45" class="st3" width="0.1" height="1"/>
	<polygon class="st3" points="49.9,45.5 48.9,45.5 49.9,45.5 	"/>
	<g>
		<g>
			<polyline class="st5" points="31.6,45.5 29.6,51.1 31.2,51.1 35.8,45.5 			"/>
			<polygon class="st3" points="31.5,51.6 28.9,51.6 31.1,45.3 32.1,45.7 30.3,50.6 31,50.6 35.4,45.2 36.2,45.8 			"/>
		</g>
		<g>
			<polyline class="st5" points="45.9,45.5 50.5,51.1 52.1,51.1 50.1,45.5 			"/>
			<polygon class="st3" points="52.8,51.6 50.3,51.6 45.5,45.8 46.3,45.2 50.7,50.6 51.4,50.6 49.7,45.7 50.6,45.3 			"/>
		</g>
		<g>
			<path class="st5" d="M32.3,45.5h3.5l0,0h10.1l0,0h3.5L51,31.4v-9c0-1.4-1.2-2.6-2.6-2.6H33.3c-1.4,0-2.6,1.2-2.6,2.6v9"/>
			<path class="st3" d="M45.9,46H34.7l0,0h-2.4v-1h4.6l0,0L49,45l1.6-13.6v-9c0-1.2-0.9-2.1-2.1-2.1H33.3c-1.2,0-2.1,0.9-2.1,2.1v9
				h-1v-9c0-1.7,1.4-3.1,3.1-3.1h15.1c1.7,0,3.1,1.4,3.1,3.1l0,9L49.9,46L45.9,46z"/>
		</g>
		<g>
			<path class="st5" d="M32.3,45.5L32.3,45.5h-0.7l0,0H30c-1.7,0-3.1-1.4-3.1-3.1v-9.8c0-0.7,0.5-1.2,1.2-1.2h2.6h0.4
				c0.7,0,1.2,0.5,1.2,1.2v6.3V41v0.2V45.5z"/>
			<path class="st3" d="M31.6,46H30c-2,0-3.6-1.6-3.6-3.6v-9.8c0-0.9,0.8-1.7,1.7-1.7h3c0.9,0,1.7,0.8,1.7,1.7V46L31.6,46z
				 M28.1,31.9c-0.4,0-0.7,0.3-0.7,0.7v9.8c0,1.4,1.2,2.6,2.6,2.6l1.8,0V32.6c0-0.4-0.3-0.7-0.7-0.7H28.1z"/>
		</g>
		<g>
			<path class="st5" d="M18.9,51.1h-5v-0.7c0-1.1,0.9-2,2-2h0.9c1.1,0,2,0.9,2,2V51.1z"/>
			<path class="st3" d="M19.4,51.6h-6v-1.9c0-1,0.8-1.9,1.9-1.9h2.3c1,0,1.9,0.8,1.9,1.9V51.6z M14.4,50.6h4v-0.9
				c0-0.5-0.4-0.8-0.8-0.8h-2.3c-0.5,0-0.8,0.4-0.8,0.8V50.6z"/>
		</g>
		<g>
			<path class="st5" d="M20.8,29.4h-8.9c-0.2,0-0.4-0.2-0.3-0.4l2.1-10.9c0-0.2,0.2-0.3,0.3-0.3h4.6c0.2,0,0.3,0.1,0.3,0.3L21.1,29
				C21.1,29.2,21,29.4,20.8,29.4z"/>
			<path class="st3" d="M20.8,29.9h-8.9c-0.2,0-0.5-0.1-0.6-0.3c-0.2-0.2-0.2-0.4-0.2-0.7L13.2,18c0.1-0.4,0.4-0.7,0.8-0.7h4.6
				c0.4,0,0.7,0.3,0.8,0.7l2.1,10.9c0,0.2,0,0.5-0.2,0.7C21.3,29.8,21,29.9,20.8,29.9z M12.1,28.9h8.5l-2.1-10.5h-4.3L12.1,28.9z"/>
		</g>
		<g>
			<ellipse class="st5" cx="19.6" cy="35.3" rx="0.9" ry="1.6"/>
			<path class="st3" d="M19.6,37.4c-0.8,0-1.4-0.9-1.4-2.1c0-1.2,0.6-2.1,1.4-2.1S21,34,21,35.3C21,36.5,20.4,37.4,19.6,37.4z
				 M19.6,34.1c-0.1,0-0.4,0.4-0.4,1.1c0,0.8,0.3,1.1,0.4,1.1S20,36,20,35.3C20,34.5,19.7,34.1,19.6,34.1z"/>
		</g>
		<g>
			<path class="st5" d="M49.4,41.2v4.3v0h0.7h1.6c1.7,0,3.1-1.4,3.1-3.1v-9.8c0-0.7-0.5-1.2-1.2-1.2H51h-0.4c-0.7,0-1.2,0.5-1.2,1.2
				v6.8V41V41.2z"/>
			<path class="st3" d="M51.7,46h-2.8V32.6c0-0.9,0.8-1.7,1.7-1.7h3c0.9,0,1.7,0.8,1.7,1.7v9.8C55.3,44.4,53.7,46,51.7,46z M49.9,45
				h1.8c1.4,0,2.6-1.2,2.6-2.6v-9.8c0-0.4-0.3-0.7-0.7-0.7h-3c-0.4,0-0.7,0.3-0.7,0.7V45z"/>
		</g>
	</g>
	<path class="st3" d="M49.9,39.3h-1c0-1-0.8-1.8-1.8-1.8H34.5c-0.8,0-1.5,0.6-1.7,1.4l-1-0.2c0.3-1.3,1.4-2.2,2.7-2.2h12.6
		C48.7,36.6,49.9,37.8,49.9,39.3z"/>
	<rect x="32.3" y="40.7" class="st3" width="1" height="1"/>
	<rect x="33.3" y="40.7" class="st3" width="15.9" height="1"/>
	<polygon class="st3" points="50.1,46 49.4,46 49.4,45 50.5,45 50.6,45.3 50.1,45.5 	"/>
	<path class="st3" d="M59.6,51.8h-49c-0.3,0-0.5-0.2-0.5-0.5c0-0.3,0.2-0.5,0.5-0.5h49c0.3,0,0.5,0.2,0.5,0.5
		C60.1,51.5,59.9,51.8,59.6,51.8z"/>
	<rect x="15.9" y="29.4" class="st3" width="1" height="18.9"/>
	<rect x="19.1" y="29.4" class="st3" width="1" height="4.3"/>
</g>
</svg>
